<?xml version="1.0" encoding="utf-8"?>
<!-- Generator: Adobe Illustrator 16.0.0, SVG Export Plug-In . SVG Version: 6.00 Build 0)  -->
<!DOCTYPE svg PUBLIC "-//W3C//DTD SVG 1.1//EN" "http://www.w3.org/Graphics/SVG/1.1/DTD/svg11.dtd">
<svg version="1.1" id="svg" xmlns="http://www.w3.org/2000/svg" xmlns:xlink="http://www.w3.org/1999/xlink" x="0px" y="0px"
	 width="400px" height="400px" viewBox="0 0 400 400" enable-background="new 0 0 400 400" xml:space="preserve">
<g id="svgg">
	<path id="path0" fill="#D7A862" d="M197,3.764c-0.88,0.548-2.604,1.531-3.824,2.184c-1.223,0.653-2.445,1.453-2.716,1.779
		c-0.271,0.326-1.477,0.992-2.676,1.479c-1.201,0.488-2.187,1.052-2.187,1.255c0,0.202-0.815,0.718-1.815,1.147
		c-1,0.429-2.396,1.203-3.103,1.722c-0.705,0.518-1.854,1.167-2.553,1.443c-0.699,0.275-1.568,0.829-1.935,1.23
		c-0.36,0.401-1.636,1.126-2.826,1.61c-1.192,0.484-2.169,1.047-2.169,1.252c0,0.204-0.854,0.769-1.899,1.254
		c-1.045,0.485-2.547,1.377-3.338,1.982c-0.791,0.604-1.658,1.099-1.928,1.099c-0.271,0-1.242,0.514-2.162,1.141
		c-0.92,0.628-2.395,1.475-3.272,1.882c-0.88,0.407-1.819,1.04-2.086,1.407c-0.268,0.366-1.483,1.07-2.7,1.564
		c-1.218,0.495-2.214,1.06-2.214,1.258c0,0.197-0.981,0.793-2.187,1.325c-1.203,0.532-2.601,1.352-3.103,1.823
		c-0.502,0.47-1.403,0.955-2.007,1.076c-0.602,0.122-1.507,0.634-2.012,1.139c-0.504,0.504-1.946,1.372-3.205,1.929
		c-1.259,0.556-2.289,1.18-2.289,1.385s-0.855,0.743-1.9,1.197c-1.045,0.453-2.52,1.285-3.275,1.849
		c-0.758,0.564-1.577,1.025-1.822,1.025s-1.065,0.47-1.822,1.045c-0.758,0.574-2.306,1.464-3.438,1.978
		c-1.138,0.514-2.186,1.128-2.329,1.365c-0.147,0.236-1.32,0.962-2.608,1.612c-1.288,0.65-2.452,1.361-2.587,1.58
		c-0.136,0.218-1.091,0.771-2.125,1.228c-1.033,0.457-2.24,1.16-2.683,1.562c-0.443,0.402-1.493,0.952-2.333,1.221
		s-1.632,0.761-1.762,1.093c-0.128,0.331-1.354,1.106-2.725,1.722c-1.372,0.615-2.604,1.3-2.743,1.522
		c-0.137,0.221-1.103,0.809-2.146,1.307c-1.044,0.497-2.407,1.322-3.029,1.834s-1.432,0.933-1.8,0.935s-1.447,0.622-2.398,1.379
		c-0.951,0.756-2.345,1.577-3.097,1.826c-0.752,0.248-1.504,0.685-1.671,0.971s-1.383,1.095-2.703,1.797
		c-4.621,2.457-6.412,3.481-7.956,4.548c-0.856,0.591-1.822,1.075-2.147,1.075c-0.322,0-1.227,0.558-2.003,1.239
		c-0.773,0.682-2.175,1.567-3.106,1.967c-0.936,0.4-1.814,0.918-1.958,1.15c-0.146,0.229-1.077,0.783-2.076,1.225
		c-0.999,0.441-2.356,1.257-3.014,1.811C62.879,82.746,62,83.2,61.584,83.2c-0.415,0-1.364,0.535-2.109,1.188
		c-0.744,0.654-2.146,1.529-3.119,1.946c-0.972,0.416-1.985,1.023-2.258,1.35c-0.271,0.326-1.258,0.923-2.195,1.327
		c-0.936,0.405-2.149,1.129-2.699,1.611c-0.553,0.481-1.468,0.984-2.034,1.117c-0.568,0.134-1.726,0.791-2.566,1.461
		c-0.842,0.67-1.998,1.332-2.563,1.472c-0.569,0.14-1.707,0.826-2.529,1.526c-0.823,0.699-2.209,1.506-3.08,1.794
		c-0.871,0.287-1.674,0.758-1.784,1.045c-0.108,0.288-1.119,0.918-2.24,1.401c-3.527,1.518-3.198-8.693-3.198,99.482
		c0,107.323-0.293,98.234,3.217,99.855c1.311,0.604,2.383,1.24,2.383,1.414c0,0.172,0.945,0.711,2.101,1.201
		c1.154,0.486,2.514,1.318,3.018,1.849c0.504,0.528,1.144,0.961,1.422,0.961s1.396,0.583,2.483,1.295
		c1.98,1.298,2.845,1.792,7.315,4.196c1.322,0.709,2.522,1.482,2.669,1.721c0.147,0.236,1.284,0.881,2.529,1.431
		s2.713,1.421,3.263,1.935c0.551,0.515,1.45,1.068,2,1.232c0.551,0.165,1.488,0.707,2.084,1.206c0.599,0.498,1.902,1.218,2.9,1.599
		c0.999,0.385,1.813,0.857,1.813,1.059s1.172,0.887,2.603,1.527c1.43,0.644,2.6,1.363,2.6,1.604c0,0.242,1.014,0.886,2.248,1.433
		c1.236,0.547,2.813,1.408,3.5,1.914c0.689,0.506,1.837,1.151,2.553,1.436c0.717,0.279,1.302,0.646,1.302,0.811
		c0,0.161,1.074,0.777,2.39,1.367c1.315,0.592,2.53,1.318,2.7,1.618c0.171,0.3,1.321,0.992,2.559,1.538
		c1.237,0.545,2.378,1.2,2.537,1.458c0.158,0.256,1.238,0.886,2.4,1.397c1.16,0.516,2.232,1.133,2.386,1.377
		c0.149,0.244,1.236,0.887,2.413,1.422c1.177,0.539,2.267,1.187,2.421,1.437c0.155,0.251,1.096,0.808,2.09,1.229
		c0.994,0.427,2.323,1.21,2.954,1.738c0.63,0.531,1.547,1.092,2.039,1.248c0.491,0.156,1.771,0.889,2.847,1.629
		c1.074,0.738,2.197,1.344,2.495,1.344s1.132,0.509,1.855,1.128c0.723,0.618,1.941,1.372,2.714,1.674
		c0.77,0.3,1.991,1.053,2.714,1.673s1.557,1.127,1.854,1.127c0.299,0,1.416,0.598,2.484,1.322c1.07,0.729,2.524,1.557,3.232,1.843
		c0.707,0.287,1.496,0.772,1.753,1.083c0.256,0.311,1.295,0.928,2.308,1.376c1.015,0.448,2.204,1.147,2.647,1.56
		c0.44,0.406,1.521,1.037,2.397,1.397c0.877,0.359,1.957,0.996,2.4,1.411c0.442,0.415,1.64,1.109,2.661,1.548
		c1.021,0.438,1.988,1.009,2.148,1.271c0.163,0.264,1.246,0.897,2.407,1.41c1.162,0.515,2.242,1.146,2.4,1.4
		c0.158,0.257,1.236,0.887,2.397,1.4c1.162,0.514,2.232,1.127,2.378,1.365c0.245,0.395,1.258,0.979,7.104,4.112
		c1.132,0.604,2.428,1.435,2.881,1.835c0.453,0.403,1.453,0.973,2.223,1.264c0.771,0.291,1.853,0.938,2.4,1.438
		s1.81,1.292,2.8,1.758c2.544,1.197,6.06,3.245,7.382,4.305c0.619,0.496,1.35,0.899,1.618,0.899c0.271,0,1.551,0.722,2.846,1.601
		c1.298,0.879,2.557,1.601,2.802,1.601c0.245,0.001,1.108,0.53,1.926,1.178c0.813,0.646,2.279,1.479,3.255,1.854
		s1.774,0.845,1.774,1.047c0,2.181,6.476,2.31,9.557,0.189c1.173-0.808,2.321-1.468,2.55-1.468c0.23,0,1.064-0.495,1.855-1.101
		c0.791-0.604,2.271-1.484,3.289-1.959c1.018-0.473,1.979-1.066,2.137-1.32c0.157-0.255,1.218-0.875,2.355-1.38
		c1.143-0.504,2.341-1.173,2.663-1.485c0.325-0.313,1.357-0.908,2.293-1.322c0.938-0.416,1.927-1.021,2.195-1.349
		c0.271-0.327,1.304-0.94,2.297-1.366c0.993-0.424,2.168-1.109,2.611-1.525c0.441-0.414,1.49-1.039,2.326-1.389
		s2.256-1.168,3.152-1.818c0.899-0.65,1.863-1.186,2.146-1.186s1.02-0.429,1.644-0.953c0.623-0.525,1.853-1.254,2.728-1.619
		s1.954-1.004,2.396-1.42c0.443-0.416,1.526-1.084,2.408-1.48c0.882-0.398,2.232-1.191,3-1.762c0.768-0.569,2.019-1.281,2.78-1.584
		c0.76-0.301,1.688-0.854,2.063-1.229s1.486-1.039,2.468-1.473c0.979-0.435,1.899-0.98,2.048-1.218
		c0.146-0.234,1.339-0.912,2.648-1.5c1.313-0.59,2.39-1.229,2.39-1.422c0-0.192,1.005-0.795,2.231-1.338
		c1.229-0.543,2.772-1.44,3.433-1.996c0.656-0.554,1.438-1.006,1.733-1.006s1.069-0.447,1.718-0.992
		c0.648-0.547,2.035-1.357,3.082-1.809s2.419-1.25,3.053-1.779c0.63-0.531,1.552-1.088,2.048-1.24
		c0.496-0.148,1.483-0.711,2.196-1.243c0.716-0.534,1.801-1.188,2.411-1.453c1.116-0.483,3.289-1.799,6.823-4.126
		c1.038-0.688,2.333-1.382,2.878-1.548s1.621-0.775,2.394-1.354c0.77-0.578,2.207-1.429,3.197-1.89s2.037-1.124,2.328-1.478
		c0.29-0.351,1.042-0.75,1.67-0.889c0.629-0.139,1.563-0.656,2.073-1.152c0.511-0.494,1.829-1.311,2.929-1.813
		c1.103-0.502,2.362-1.246,2.805-1.654c0.443-0.406,1.522-1.041,2.397-1.406s2.102-1.095,2.725-1.619
		c0.624-0.523,1.364-0.952,1.646-0.952s1.244-0.533,2.143-1.187c0.899-0.65,2.319-1.47,3.155-1.818
		c0.836-0.35,1.883-0.967,2.326-1.37c0.44-0.405,1.734-1.203,2.877-1.773c1.139-0.569,2.178-1.209,2.307-1.419
		c0.13-0.21,1.179-0.852,2.329-1.426c3.62-1.809,6.463-3.439,7.292-4.189c0.44-0.396,1.632-1.082,2.648-1.523
		c1.016-0.439,1.973-1.004,2.125-1.25c0.148-0.243,1.12-0.827,2.148-1.297c1.032-0.469,2.388-1.277,3.007-1.799
		c0.622-0.521,1.345-0.949,1.603-0.949c0.258-0.002,1.279-0.549,2.269-1.219c0.99-0.668,2.401-1.477,3.139-1.793
		c0.731-0.316,1.836-0.996,2.444-1.512c0.611-0.515,1.723-1.176,2.464-1.471c0.744-0.296,1.681-0.814,2.075-1.153
		c0.397-0.339,1.646-1.089,2.775-1.666c3.313-1.694,3.039,7.304,3.072-99.586c0.031-108.105,0.361-97.65-3.146-99.485
		c-0.977-0.511-2.057-1.174-2.399-1.473c-0.344-0.299-1.505-0.927-2.578-1.395c-1.076-0.469-2.373-1.301-2.884-1.849
		c-0.509-0.549-1.226-0.998-1.593-0.998c-0.368,0-1.747-0.72-3.063-1.6c-1.318-0.88-2.624-1.6-2.902-1.6s-0.741-0.285-1.03-0.633
		s-1.611-1.182-2.941-1.853c-1.331-0.672-2.604-1.444-2.824-1.717c-0.224-0.272-0.99-0.688-1.704-0.925
		c-0.714-0.236-1.955-0.934-2.758-1.551c-1.479-1.136-2.736-1.854-7.243-4.132c-1.375-0.696-2.5-1.414-2.5-1.597
		c0-0.184-1.018-0.799-2.26-1.368c-1.243-0.569-2.707-1.482-3.254-2.029c-0.55-0.547-1.307-0.995-1.684-0.995
		c-0.378,0-1.298-0.449-2.046-0.998c-0.747-0.55-2.304-1.447-3.459-1.995s-2.1-1.146-2.1-1.328c0-0.183-0.993-0.743-2.206-1.246
		c-1.213-0.503-2.429-1.22-2.7-1.594c-0.272-0.373-1.124-0.926-1.895-1.227c-0.771-0.302-2.233-1.148-3.256-1.88
		c-1.019-0.733-2.082-1.332-2.359-1.332c-0.28,0-1.065-0.424-1.746-0.943c-0.684-0.519-2.17-1.416-3.313-1.993
		c-1.139-0.577-2.182-1.227-2.313-1.445c-0.135-0.218-1.062-0.758-2.061-1.2c-0.999-0.441-2.356-1.257-3.017-1.811
		c-0.659-0.554-1.428-1.008-1.708-1.008c-0.278,0-1.222-0.517-2.094-1.148c-0.871-0.631-2.405-1.511-3.408-1.955
		c-1.003-0.443-1.941-1.002-2.092-1.24c-0.147-0.239-1.113-0.808-2.147-1.265c-1.03-0.457-2.237-1.17-2.683-1.585
		c-0.443-0.414-1.64-1.11-2.661-1.547c-1.021-0.437-1.989-1.009-2.148-1.272c-0.163-0.262-1.246-0.898-2.407-1.411
		c-1.162-0.514-2.242-1.144-2.4-1.4c-0.159-0.257-1.242-0.888-2.407-1.403c-1.165-0.516-2.267-1.181-2.446-1.479
		c-0.184-0.298-0.96-0.785-1.73-1.082c-0.77-0.298-2.021-1.007-2.787-1.577c-0.763-0.57-2.237-1.486-3.28-2.036
		c-4.978-2.627-6.691-3.614-6.919-3.98c-0.137-0.218-1.092-0.771-2.125-1.228c-1.031-0.457-2.241-1.174-2.688-1.592
		c-0.446-0.419-1.528-1.058-2.405-1.419c-0.877-0.362-1.957-0.992-2.397-1.4c-0.443-0.409-1.515-1.038-2.375-1.398
		c-0.863-0.361-2.121-1.061-2.795-1.556c-0.677-0.494-1.807-1.127-2.515-1.406c-0.707-0.279-1.517-0.786-1.8-1.128
		c-0.282-0.341-1.323-0.997-2.313-1.457c-0.989-0.461-2.432-1.311-3.199-1.89c-0.771-0.579-1.853-1.185-2.4-1.346
		c-0.55-0.16-1.358-0.62-1.8-1.021s-1.521-1.056-2.403-1.454c-0.882-0.399-2.229-1.191-3-1.761c-0.768-0.57-2.024-1.281-2.797-1.58
		c-0.77-0.299-1.618-0.843-1.884-1.209c-0.267-0.365-1.076-0.897-1.8-1.182c-0.727-0.284-2.291-1.148-3.482-1.92
		C201.544,2.601,199.222,2.379,197,3.764 M207.4,135.607c1.763,0.438,4.866,0.975,6.902,1.192c2.562,0.274,4.287,0.699,5.6,1.382
		c1.044,0.543,2.896,1.245,4.117,1.56c1.22,0.315,2.896,1.031,3.719,1.591c0.826,0.561,2.167,1.236,2.982,1.501
		c0.814,0.266,1.989,0.907,2.611,1.425c0.622,0.518,1.274,0.942,1.456,0.942c0.179,0,1.194,0.72,2.262,1.6
		c1.063,0.88,2.093,1.6,2.285,1.6c0.588,0,6.751,5.597,8.771,7.966c1.049,1.229,2.244,2.594,2.656,3.034s1.039,1.376,1.394,2.08
		c0.355,0.704,0.894,1.424,1.192,1.6c0.301,0.176,0.918,1.052,1.371,1.947c0.452,0.894,1.096,1.853,1.43,2.131
		c0.334,0.277,0.903,1.395,1.268,2.485c0.359,1.09,1.053,2.471,1.536,3.069c0.48,0.599,1.104,1.988,1.386,3.088
		c0.276,1.1,0.972,2.985,1.54,4.19c0.602,1.276,1.169,3.41,1.357,5.115c0.184,1.609,0.722,4.834,1.197,7.167
		c1.01,4.931,0.928,12.539-0.18,16.728c-0.352,1.32-0.809,3.936-1.019,5.811c-0.248,2.221-0.729,4.107-1.379,5.4
		c-0.549,1.094-1.216,2.889-1.48,3.989c-0.27,1.1-0.796,2.36-1.18,2.8c-0.38,0.439-1.014,1.667-1.406,2.727
		c-0.396,1.061-1.229,2.568-1.854,3.354s-1.136,1.663-1.136,1.95c0,0.285-0.675,1.334-1.5,2.328s-2.04,2.546-2.7,3.445
		c-1.549,2.111-7.682,8.244-9.795,9.795c-0.9,0.658-2.451,1.875-3.445,2.698c-0.994,0.825-2.043,1.5-2.329,1.5
		c-0.284,0-1.161,0.513-1.947,1.138s-2.291,1.465-3.347,1.865c-1.053,0.402-2.232,1.03-2.628,1.396
		c-0.392,0.363-1.636,0.878-2.763,1.138c-1.127,0.263-2.966,0.935-4.086,1.496c-1.345,0.675-3.197,1.151-5.449,1.401
		c-1.876,0.213-4.491,0.67-5.811,1.019c-4.19,1.106-11.797,1.188-16.729,0.183c-2.333-0.479-5.558-1.019-7.167-1.197
		c-1.686-0.189-3.853-0.762-5.114-1.354c-1.204-0.563-3.211-1.313-4.455-1.673c-1.246-0.354-2.479-0.9-2.736-1.215
		c-0.258-0.313-1.488-0.946-2.733-1.41s-2.624-1.17-3.063-1.566c-0.44-0.398-1.433-1.039-2.2-1.427
		c-0.771-0.386-1.544-0.944-1.72-1.245c-0.179-0.302-0.896-0.838-1.603-1.189c-0.704-0.355-1.64-0.982-2.08-1.395
		c-0.438-0.412-1.805-1.606-3.033-2.656c-2.367-2.021-7.967-8.186-7.967-8.771c0-0.191-0.72-1.22-1.6-2.285
		c-0.88-1.063-1.602-2.083-1.602-2.262c0-0.18-0.425-0.834-0.94-1.456c-0.519-0.622-1.159-1.797-1.425-2.61
		c-0.268-0.813-0.94-2.156-1.501-2.98c-0.563-0.825-1.276-2.499-1.593-3.721c-0.313-1.222-1.018-3.072-1.561-4.115
		c-0.683-1.313-1.108-3.038-1.382-5.602c-0.217-2.037-0.754-5.143-1.192-6.901c-0.889-3.565-1.083-10.468-0.371-13.199
		c0.93-3.555,1.188-4.949,1.53-8.241c0.247-2.36,0.688-4.086,1.401-5.493c0.569-1.129,1.306-3.074,1.631-4.322
		c0.325-1.247,0.833-2.555,1.129-2.906c0.632-0.748,1.873-3.377,1.873-3.968c0-0.225,0.412-0.917,0.916-1.539
		c0.503-0.622,1.107-1.581,1.346-2.131c0.238-0.55,1.086-1.782,1.885-2.738c0.802-0.956,1.453-1.889,1.453-2.075
		c0-0.868,11.541-12.387,12.411-12.387c0.199,0,0.953-0.521,1.677-1.155c0.727-0.636,2.068-1.547,2.987-2.026s1.877-1.12,2.13-1.425
		c0.252-0.304,1.12-0.77,1.928-1.035c0.809-0.265,2.162-0.919,3.016-1.454c0.85-0.535,2.518-1.226,3.706-1.535
		c1.188-0.31,3.085-1.031,4.214-1.603c1.407-0.714,3.133-1.154,5.493-1.401c3.27-0.342,4.854-0.639,8.041-1.504
		C196.611,134.553,203.926,134.741,207.4,135.607"/>
	<path id="path0_1_" fill="#181818" d="M197,3.764c-5.029,3.131-10.136,5.924-15.211,8.859c-5.134,2.968-10.378,5.79-15.278,9.086
		c-2.291,1.542-4.858,2.939-7.324,4.222c-1.15,0.598-2.017,1.278-3.039,2.028c-0.625,0.458-4.55,1.734-4.55,2.493
		c0,0.721-3.097,1.75-3.654,2.061c-1.199,0.669-2.263,1.888-3.642,2.163c-1.403,0.285-2.475,1.602-3.69,2.294
		c-1.392,0.792-2.784,1.312-3.966,2.369c-1.053,0.942-2.636,1.359-3.847,2.072c-1.154,0.679-2.221,1.349-3.414,1.933
		c-2.78,1.359-5.434,3.276-8.053,4.896c-2.63,1.626-5.343,3.02-8.007,4.571c-1.178,0.686-2.122,1.555-3.453,1.981
		c-1.438,0.46-2.344,1.74-3.689,2.431c-5.125,2.635-9.857,5.877-14.869,8.654c-4.461,2.471-9.227,4.916-13.471,7.849
		c-0.953,0.658-2.032,0.854-2.979,1.439c-1.277,0.79-2.327,1.841-3.672,2.549c-2.47,1.3-5.513,2.675-7.654,4.479
		c-1.063,0.894-2.371,0.95-3.478,1.735c-1.219,0.865-2.309,1.81-3.705,2.407c-2.71,1.16-5.309,3.188-7.799,4.762
		c-2.43,1.536-5.219,2.64-7.687,4.129c-2.58,1.557-5.016,3.465-7.656,4.831c-0.555,0.288-1.012,0.497-1.606,0.592
		c-2.114,0.339-1.837,3.932-1.938,5.477c-0.795,12.219-0.45,24.566-0.463,36.8c-0.033,30.116,0.001,60.232-0.003,90.348
		c-0.003,17.879-0.187,35.777,0.228,53.653c0.072,3.094,0.106,6.222,0.487,9.297c0.111,0.899,0.186,2.261,0.907,2.933
		c0.391,0.364,0.979,0.37,1.456,0.559c1.722,0.682,2.935,1.959,4.627,2.677c1.383,0.583,2.397,1.421,3.548,2.333
		c1.069,0.847,2.61,1.276,3.784,2.038c4.64,3.01,9.679,5.348,14.34,8.271c2.573,1.613,5.145,3.688,8.012,4.781
		c1.184,0.456,1.819,1.246,2.882,1.829c0.618,0.34,4.134,1.5,4.134,2.361c0,0.833,3.2,1.872,3.816,2.197
		c1.337,0.704,2.526,1.642,3.88,2.312c0.979,0.485,1.697,1.085,2.607,1.606c1.136,0.651,3.696,1.241,4.388,2.463
		c0.681,1.194,3.105,1.728,4.231,2.375c1.135,0.652,2.027,1.474,3.265,2.019c2.517,1.119,5.29,2.839,7.472,4.474
		c2.091,1.567,4.992,3.032,7.332,4.194c3.074,1.525,5.75,3.677,8.762,5.256c5.364,2.812,10.383,6.313,15.773,9.101
		c5.258,2.719,10.348,6.035,15.459,9.02c8.907,5.201,17.799,10.61,26.781,15.762c4.962,2.846,9.69,6.11,14.721,8.821
		c1.04,0.561,2.764,0.815,3.16,2.003c0.271,0.813,1.356,1.101,2.091,1.237c3.002,0.563,5.777-0.358,8.275-1.945
		c4.842-3.076,9.936-5.898,14.906-8.766c5.106-2.945,10.089-6.121,15.262-8.983c10.203-5.646,20.013-12.483,30.41-17.709
		c5.235-2.632,10.206-6.038,15.317-8.938c2.038-1.156,4.086-2.375,6.096-3.591c2.944-1.78,6.103-3.369,8.967-5.224
		c1.26-0.815,2.45-1.685,3.82-2.322c1.224-0.569,2.146-1.633,3.351-2.152c1.387-0.598,2.399-1.251,3.655-2.073
		c1.523-0.997,3.449-1.515,4.799-2.76c1.092-1,2.603-1.412,3.854-2.156c1.127-0.67,2.035-1.41,3.241-1.915
		c2.53-1.059,5.433-2.956,7.655-4.566c2.148-1.558,4.774-3.146,7.154-4.333c2.947-1.473,5.575-3.31,8.4-4.935
		c4.908-2.823,9.73-5.767,14.692-8.51c3.925-2.171,7.665-5.213,11.903-6.729c0.654-0.234,0.9-0.867,1.062-1.496
		c0.514-1.999,0.525-4.168,0.614-6.216c0.217-4.979,0.249-9.967,0.289-14.95c0.406-49.891,0.334-99.809,0.08-149.701
		c-0.04-7.783,0.688-16.281-0.784-23.989c-0.127-0.669-0.3-1.604-0.996-1.923c-1.646-0.754-3.127-1.667-4.761-2.55
		c-4.915-2.659-9.669-5.578-14.449-8.452c-4.471-2.689-8.935-5.489-13.572-7.898c-5.302-2.754-10.336-5.997-15.435-9.038
		c-5.292-3.157-10.479-6.391-15.865-9.429c-2.467-1.392-5.061-2.666-7.494-4.184c-2.318-1.447-4.686-3.27-7.144-4.469
		c-5.092-2.484-9.676-5.952-14.722-8.511c-5.146-2.608-9.826-6.164-14.977-8.707c-2.932-1.447-5.673-3.435-8.564-5
		c-1.425-0.771-2.718-1.592-4.014-2.521c-1.845-1.323-4.255-2.674-6.292-3.705c-2.119-1.072-4.033-2.381-6.161-3.438
		c-4.327-2.15-8.479-4.927-12.538-7.543c-3.991-2.572-8.382-4.784-12.549-7.095C206.946,6.266,201.752,0.802,197,3.764
		 M202.781,26.979c0.954,1.013,2.275,1.155,3.445,1.775c1.293,0.685,2.372,1.691,3.682,2.36c2.865,1.462,5.509,3.297,8.307,4.948
		c1.084,0.639,2.223,1.001,3.271,1.717c0.929,0.634,2.467,2.221,3.693,2.221c1.16,0,3.042,1.934,4.122,2.429
		c1.438,0.662,2.679,2.18,4.193,2.556c1.409,0.356,2.621,1.488,3.79,2.284c1.183,0.805,2.529,1.151,3.711,1.905
		c2.366,1.508,4.762,3.066,7.217,4.404c1.245,0.678,2.667,1.269,3.67,2.309c0.847,0.883,2.088,0.962,3.11,1.57
		c2.509,1.491,4.899,2.962,7.369,4.479c2.696,1.657,5.617,2.899,8.221,4.714c1.224,0.852,2.396,1.278,3.667,1.923
		c1.08,0.547,2.004,1.553,3.1,2.15c0.787,0.429,1.889,0.601,2.606,1.086c1.182,0.799,2.151,1.616,3.452,2.302
		c1.255,0.662,2.238,1.662,3.454,2.358c1.297,0.743,2.559,1.176,3.811,2.063c1.213,0.86,2.706,1.201,3.899,2.049
		c0.92,0.654,1.721,1.289,2.789,1.799c1.219,0.581,2.034,1.321,3.05,2.103c1.291,0.993,3.114,1.32,4.483,2.35
		c1.235,0.929,2.552,1.304,3.82,2.076c1.303,0.793,2.474,1.707,3.882,2.331c2.819,1.247,5.408,3.354,8.07,4.944
		c2.379,1.42,4.866,2.846,7.376,3.929c1.269,0.547,2.213,1.74,3.529,2.322c1.573,0.696,2.795,1.855,4.313,2.62
		c2.435,1.226,4.72,2.684,7.077,4.002c1.932,1.08,4.551,2.118,5.993,3.83c1.361,1.615,1.771,1.986,1.9,3.836
		c0.653,9.415,0.298,18.969,0.317,28.396c0.072,36.086,0.028,72.172,0.028,108.258c0,7.699,0,15.399,0,23.099
		c0,2.159,0,4.319,0,6.479c0,1.682-0.248,1.949-1.479,3.397c-0.951,1.205-2.164,2.179-3.571,2.799
		c-1.082,0.479-3.001,2.449-4.136,2.449c-1.174,0-2.624,1.504-3.526,2.106c-1.2,0.803-2.864,1.033-3.847,2.091
		c-1.068,1.156-2.696,1.762-4.065,2.456c-1.166,0.59-2.089,1.47-3.301,1.972c-1.296,0.538-2.345,1.415-3.498,2.183
		c-1.364,0.907-2.929,1.242-4.187,2.347c-1.522,1.337-3.528,1.902-5.14,3.074c-2.077,1.513-4.561,2.591-6.826,3.775
		c-1.433,0.748-2.602,1.804-3.954,2.654c-1.17,0.735-2.298,0.94-3.436,1.82c-2.385,1.844-5.259,3.096-7.829,4.582
		c-4.974,2.878-9.778,6.012-14.825,8.76c-2.563,1.396-5.104,2.848-7.482,4.525c-1.134,0.799-2.492,0.911-3.563,1.804
		c-1.427,1.197-3.19,1.873-4.739,2.877c-9.829,6.374-20.56,11.736-30.466,18.003c-2.178,1.377-4.436,2.69-6.715,3.732
		c-2.006,0.916-3.487,2.318-5.438,3.289c-5.01,2.492-9.435,5.92-14.475,8.362c-1.485,0.721-2.659,2.114-4.354,2.357
		c-1.727,0.247-2.502-0.986-3.801-1.795c-2.48-1.544-5.323-2.673-7.767-4.238c-2.45-1.569-4.951-3.318-7.532-4.662
		c-1.243-0.647-2.491-1.196-3.606-2.069c-1.295-1.012-2.933-1.266-4.231-2.176c-1.904-1.336-4.185-3.268-6.336-4.211
		c-1.562-0.686-2.768-1.384-4.184-2.363c-1.417-0.98-3.018-1.376-4.414-2.405c-4.084-3.012-8.84-5.199-13.226-7.692
		c-5.002-2.845-10.02-5.781-14.868-8.8c-4.868-3.031-10.019-5.575-14.896-8.665c-4.676-2.962-9.5-5.433-14.225-8.334
		c-2.645-1.623-5.227-3.31-7.904-4.913c-2.313-1.386-4.992-2.392-7.275-3.829c-4.728-2.977-9.492-5.699-14.361-8.402
		c-2.535-1.408-4.875-3.747-7.562-4.885c-1.205-0.511-2.228-0.919-3.315-1.736c-1.232-0.925-3.075-1.314-4.157-2.299
		c-1.916-1.748-7.464-3.441-7.465-6.691c0-1.579,0-3.157,0-4.736c-0.001-7.019-0.002-14.037-0.002-21.055
		c-0.002-16.821-0.004-33.643-0.006-50.464c-0.003-24.461-0.005-48.922-0.008-73.384c0-5.773-0.001-11.545-0.002-17.318
		c0-1.822,0.037-1.9,1.282-3.468c1.968-2.477,4.996-3.605,7.691-5.081c2.063-1.129,3.855-2.773,6.03-3.684
		c2.306-0.966,5.116-2.603,7.07-4.126c0.885-0.69,1.74-0.99,2.71-1.552c1.219-0.705,3.087-2.543,4.574-2.543
		c1.052,0,2.35-1.672,3.23-2.195c1.276-0.758,3.194-1.19,4.167-2.363c0.764-0.921,2.617-1.408,3.617-2.067
		c1.568-1.035,3.322-1.692,4.901-2.676c9.17-5.713,18.542-11.14,27.909-16.556c6.435-3.72,12.697-8.092,19.407-11.296
		c1.838-0.877,3.229-2.221,5.126-2.977c1.809-0.721,3.61-2.252,5.32-3.23c1.535-0.877,3.023-1.723,4.548-2.599
		c1.052-0.604,1.945-1.434,2.999-2.033c0.853-0.485,1.752-0.608,2.588-1.175c3.365-2.284,6.987-4.035,10.395-6.238
		c3.051-1.974,6.604-3.396,9.585-5.581c1.631-1.195,3.567-1.904,5.165-3.13c1.334-1.023,2.872-1.413,4.248-2.4
		c1.515-1.087,3.067-1.641,4.589-2.611C198.24,26.465,200.83,24.903,202.781,26.979 M190.442,115.233
		c-3.201,0.415-6.229,1.648-9.441,2.13c-3.5,0.525-6.451,1.926-9.798,2.877c-2.708,0.77-5.166,2.573-7.884,3.145
		c-1.323,0.28-2.319,1.164-3.447,1.834c-0.699,0.416-4.669,1.875-4.669,2.721c0,0.349-3.229,1.948-3.6,2.257
		c-0.843,0.704-1.814,1.188-2.648,1.873c-1.45,1.192-2.973,2.322-4.358,3.573c-3.034,2.744-5.948,5.68-8.715,8.692
		c-6.963,7.579-12.865,17.443-15.772,27.319c-0.482,1.636-1.482,2.981-1.883,4.615c-0.81,3.294-0.994,6.724-1.921,9.992
		c-0.984,3.47-1.401,6.699-1.476,10.383c-0.099,4.875-0.063,9.895,0.756,14.714c0.335,1.973,1.085,3.825,1.444,5.8
		c0.52,2.852,0.674,6.096,2.049,8.714c1.132,2.156,1.327,4.604,2.404,6.824c1.385,2.857,2.692,5.741,4.258,8.517
		c2.945,5.217,6.204,9.968,10.163,14.575c3.715,4.324,7.979,8.133,12.408,11.706c1.276,1.028,2.513,2.132,3.864,3.063
		c1.024,0.704,2.306,1.025,3.225,1.871c1.108,1.01,2.684,1.503,3.994,2.174c1.299,0.665,2.053,1.544,3.504,2.008
		c2.607,0.833,4.765,2.566,7.438,3.242c2.795,0.707,5.434,1.895,8.268,2.518c4.911,1.079,9.747,2.312,14.78,2.585
		c5.251,0.284,10.574,0.301,15.817-0.149c1.64-0.141,3.186-0.38,4.755-0.863c3.585-1.105,7.389-1.167,10.928-2.444
		c2.737-0.987,6.304-1.637,8.717-3.285c1.17-0.789,2.469-1.129,3.77-1.612c1.591-0.592,2.921-1.704,4.433-2.467
		c1.312-0.66,2.285-1.352,3.403-2.22c1.079-0.837,2.379-1.002,3.454-1.982c1.931-1.761,4.403-3.875,6.661-5.154
		c2.978-1.688,5.646-5.313,7.976-7.775c0.911-0.963,1.546-1.995,2.384-2.994c0.994-1.186,2.059-2.31,2.906-3.61
		c0.88-1.345,2.474-2.445,2.835-4.069c0.257-1.173,1.365-1.888,1.93-2.928c0.735-1.356,1.278-2.855,2.243-4.079
		c0.897-1.136,1.138-2.582,1.705-3.876c0.765-1.746,1.899-3.261,2.399-5.127c0.762-2.839,1.999-5.512,2.629-8.386
		c0.687-3.13,1.194-6.223,2.066-9.305c1.089-3.847,0.733-8.427,0.712-12.374c-0.023-4.304,0.114-8.941-0.852-13.165
		c-1.318-5.763-2.604-11.524-4.505-17.099c-0.956-2.805-2.365-5.933-3.71-8.581c-1.227-2.413-3.12-4.703-4.375-7.159
		c-2.821-5.524-7.742-10.474-12.099-14.852c-4.04-4.061-8.6-7.96-13.547-10.828c-5.279-3.06-10.715-6.743-16.708-8.316
		c-2.18-0.572-4.126-1.646-6.321-2.167c-3.177-0.754-6.449-0.977-9.554-2.021c-3.223-1.083-7.006-1.062-10.361-1.186
		C198.882,114.726,194.611,114.693,190.442,115.233 M207.4,135.607c3.118,0.775,6.317,0.937,9.454,1.57
		c2.907,0.587,6.007,2.003,8.764,3.099c5.135,2.04,9.353,5.412,13.99,8.245c4.203,2.568,7.577,6.896,10.819,10.512
		c3.77,4.204,5.986,9.346,8.826,14.125c1.41,2.373,2.366,5.712,3.201,8.347c1.094,3.45,1.255,7.224,1.978,10.768
		c1.356,6.625,0.4,12.9-0.742,19.425c-0.554,3.162-0.797,6.148-2.117,9.112c-0.614,1.38-0.968,2.806-1.442,4.23
		c-0.56,1.68-1.725,3.02-2.342,4.687c-0.579,1.549-1.534,2.782-2.427,4.146c-0.766,1.169-1.135,2.368-2.063,3.487
		c-1.688,2.033-3.202,4.175-5.012,6.105c-3.696,3.944-7.792,7.952-12.358,10.893c-2.453,1.579-5.166,2.779-7.754,4.155
		c-2.751,1.463-5.625,2.392-8.523,3.596c-2.969,1.232-6.331,1.221-9.451,1.866c-3.253,0.673-6.383,1.154-9.723,1.163
		c-3.356,0.009-6.579-0.415-9.868-1.028c-3.318-0.617-6.861-0.745-10.029-1.976c-5.79-2.249-11.291-4.606-16.529-7.971
		c-4.537-2.912-8.677-6.738-12.334-10.737c-3.092-3.381-6.081-7.321-8.267-11.328c-1.336-2.448-3.013-5.382-3.711-8.078
		c-0.784-3.057-2.411-5.616-2.833-8.794c-0.806-6.077-2.401-11.953-2.051-18.138c0.165-2.92,1.189-5.679,1.602-8.567
		c0.487-3.407,1.008-6.218,2.311-9.398c1.111-2.712,2.084-5.288,3.33-7.926c0.991-2.099,1.993-3.969,3.172-6
		c1.786-3.074,4.173-5.949,6.637-8.515c2.634-2.743,5.328-5.765,8.416-8.012c1.617-1.177,3.357-2.516,5.149-3.45
		c1.164-0.606,2.08-1.596,3.255-2.141c1.287-0.597,2.604-1.011,3.818-1.773c2.515-1.584,5.802-2.266,8.543-3.428
		c3.032-1.284,6.459-1.144,9.645-1.811C196.277,134.908,201.769,134.204,207.4,135.607"/>
	<path id="path1" display="none" fill="#181818" d="M0,200v200h200h200V200V0H200H0V200 M204.434,4.473
		c1.191,0.772,2.758,1.636,3.482,1.92c0.724,0.285,1.534,0.817,1.8,1.182c0.266,0.366,1.114,0.91,1.884,1.209
		c0.771,0.299,2.029,1.01,2.797,1.58c0.771,0.57,2.118,1.362,3,1.761c0.882,0.398,1.963,1.053,2.403,1.454
		c0.44,0.401,1.25,0.861,1.8,1.021c0.55,0.161,1.63,0.767,2.4,1.346c0.77,0.579,2.21,1.429,3.2,1.89
		c0.987,0.46,2.028,1.116,2.313,1.457c0.283,0.342,1.093,0.849,1.8,1.128c0.708,0.279,1.838,0.912,2.515,1.406
		c0.674,0.495,1.932,1.195,2.795,1.556c0.86,0.36,1.932,0.989,2.375,1.398c0.44,0.408,1.521,1.038,2.397,1.4
		c0.877,0.361,1.959,1,2.405,1.419c0.445,0.418,1.655,1.135,2.688,1.592c1.034,0.457,1.989,1.01,2.125,1.228
		c0.229,0.366,1.942,1.353,6.921,3.98c1.043,0.55,2.519,1.466,3.279,2.036c0.766,0.57,2.02,1.279,2.787,1.577
		c0.771,0.297,1.549,0.784,1.73,1.082c0.182,0.298,1.281,0.963,2.446,1.479c1.165,0.515,2.248,1.146,2.407,1.403
		c0.158,0.256,1.238,0.886,2.4,1.4c1.161,0.513,2.244,1.149,2.407,1.411c0.159,0.263,1.13,0.835,2.148,1.272
		c1.021,0.437,2.218,1.133,2.661,1.547c0.443,0.415,1.65,1.128,2.683,1.585c1.034,0.457,2,1.026,2.147,1.265
		c0.147,0.238,1.089,0.797,2.092,1.24c1.003,0.444,2.537,1.324,3.408,1.955c0.872,0.631,1.813,1.148,2.094,1.148
		s1.049,0.454,1.708,1.008c0.658,0.554,2.018,1.37,3.017,1.811c0.998,0.442,1.926,0.982,2.061,1.2
		c0.134,0.218,1.177,0.868,2.313,1.445c1.143,0.577,2.63,1.474,3.313,1.993c0.681,0.519,1.466,0.943,1.746,0.943
		c0.277,0,1.343,0.599,2.359,1.332c1.021,0.732,2.484,1.578,3.256,1.88c0.771,0.301,1.62,0.854,1.895,1.227
		c0.271,0.374,1.487,1.091,2.7,1.594s2.206,1.063,2.206,1.246c0,0.182,0.942,0.78,2.1,1.328c1.155,0.548,2.712,1.445,3.459,1.995
		c0.748,0.549,1.668,0.998,2.046,0.998c0.377,0,1.135,0.448,1.684,0.995c0.547,0.547,2.011,1.46,3.254,2.029
		c1.242,0.569,2.26,1.184,2.26,1.368c0,0.183,1.125,0.901,2.5,1.597c4.507,2.278,5.765,2.996,7.243,4.132
		c0.803,0.617,2.044,1.315,2.758,1.551c0.714,0.237,1.48,0.653,1.704,0.925c0.222,0.273,1.493,1.045,2.824,1.717
		c1.33,0.671,2.652,1.505,2.941,1.853c0.289,0.348,0.752,0.633,1.03,0.633s1.584,0.72,2.902,1.6c1.315,0.88,2.694,1.6,3.063,1.6
		c0.367,0,1.084,0.449,1.593,0.998c0.511,0.548,1.808,1.38,2.884,1.849c1.073,0.468,2.234,1.096,2.578,1.395
		c0.345,0.299,1.425,0.962,2.399,1.473c3.509,1.835,3.179-8.62,3.146,99.485c-0.033,106.889,0.241,97.891-3.072,99.586
		c-1.129,0.577-2.378,1.327-2.775,1.666c-0.396,0.339-1.331,0.857-2.074,1.153c-0.742,0.295-1.854,0.956-2.465,1.471
		c-0.608,0.515-1.713,1.194-2.444,1.511c-0.735,0.317-2.146,1.125-3.139,1.793c-0.987,0.67-2.011,1.217-2.269,1.219
		c-0.258,0-0.979,0.43-1.603,0.949c-0.62,0.521-1.975,1.33-3.007,1.799c-1.028,0.471-2,1.055-2.148,1.297
		c-0.152,0.246-1.108,0.811-2.125,1.25c-1.019,0.441-2.208,1.129-2.648,1.524c-0.829,0.749-3.672,2.382-7.292,4.189
		c-1.149,0.575-2.199,1.216-2.329,1.426c-0.129,0.21-1.168,0.849-2.307,1.419c-1.142,0.57-2.437,1.368-2.877,1.773
		c-0.443,0.404-1.49,1.021-2.326,1.371c-0.836,0.35-2.256,1.168-3.155,1.817c-0.896,0.651-1.86,1.187-2.143,1.187
		s-1.021,0.429-1.646,0.953c-0.623,0.523-1.85,1.254-2.725,1.619c-0.875,0.364-1.954,1-2.397,1.405
		c-0.44,0.408-1.703,1.152-2.805,1.654c-1.1,0.503-2.418,1.317-2.929,1.813c-0.511,0.495-1.444,1.014-2.073,1.151
		c-0.628,0.14-1.38,0.538-1.67,0.89c-0.291,0.353-1.338,1.016-2.328,1.477s-2.43,1.311-3.197,1.89
		c-0.771,0.579-1.849,1.188-2.394,1.354s-1.84,0.86-2.878,1.548c-3.534,2.327-5.707,3.643-6.823,4.126
		c-0.61,0.265-1.695,0.919-2.41,1.453c-0.714,0.533-1.701,1.095-2.197,1.244c-0.496,0.15-1.418,0.709-2.048,1.239
		c-0.634,0.529-2.005,1.33-3.053,1.779c-1.047,0.448-2.434,1.262-3.082,1.81c-0.646,0.545-1.422,0.99-1.718,0.99
		s-1.077,0.453-1.734,1.008s-2.2,1.451-3.432,1.994c-1.229,0.544-2.231,1.146-2.231,1.34c0,0.192-1.074,0.831-2.39,1.422
		c-1.312,0.588-2.505,1.265-2.648,1.5c-0.146,0.234-1.067,0.782-2.049,1.217c-0.979,0.434-2.091,1.097-2.467,1.473
		s-1.306,0.93-2.063,1.229c-0.763,0.304-2.014,1.016-2.78,1.584c-0.767,0.569-2.118,1.361-3,1.763
		c-0.882,0.396-1.965,1.063-2.408,1.479c-0.44,0.416-1.521,1.055-2.396,1.42s-2.104,1.094-2.728,1.619
		c-0.624,0.525-1.361,0.954-1.644,0.954s-1.244,0.533-2.146,1.185c-0.896,0.65-2.316,1.472-3.152,1.818
		c-0.836,0.35-1.885,0.975-2.326,1.389c-0.443,0.416-1.618,1.104-2.611,1.526c-0.993,0.425-2.024,1.039-2.297,1.366
		c-0.271,0.326-1.258,0.932-2.195,1.348c-0.936,0.414-1.968,1.01-2.293,1.323c-0.322,0.313-1.521,0.981-2.662,1.485
		c-1.141,0.505-2.199,1.125-2.356,1.38c-0.157,0.254-1.119,0.849-2.137,1.321c-1.021,0.474-2.498,1.354-3.289,1.959
		c-0.791,0.604-1.625,1.1-1.855,1.1c-0.229,0-1.377,0.66-2.55,1.467c-3.081,2.119-9.557,1.99-9.557-0.189
		c0-0.201-0.8-0.674-1.774-1.047s-2.44-1.207-3.255-1.854c-0.815-0.646-1.682-1.177-1.926-1.178c-0.245,0-1.504-0.721-2.801-1.6
		c-1.296-0.881-2.573-1.602-2.847-1.602c-0.271,0-0.999-0.404-1.618-0.898c-1.322-1.061-4.838-3.106-7.382-4.306
		c-0.99-0.466-2.25-1.257-2.8-1.758s-1.63-1.146-2.4-1.438c-0.77-0.291-1.77-0.857-2.223-1.263
		c-0.453-0.401-1.749-1.229-2.881-1.835c-5.85-3.134-6.859-3.721-7.104-4.113c-0.146-0.238-1.216-0.853-2.378-1.365
		c-1.16-0.515-2.24-1.145-2.397-1.399c-0.158-0.255-1.238-0.888-2.4-1.399c-1.161-0.514-2.244-1.147-2.407-1.41
		c-0.161-0.265-1.13-0.836-2.148-1.271c-1.021-0.438-2.22-1.133-2.661-1.548c-0.443-0.415-1.523-1.052-2.4-1.411
		c-0.877-0.361-1.957-0.992-2.397-1.398c-0.443-0.408-1.636-1.108-2.647-1.559c-1.012-0.449-2.052-1.066-2.308-1.376
		c-0.257-0.31-1.046-0.796-1.753-1.083c-0.708-0.286-2.162-1.115-3.232-1.843c-1.069-0.728-2.188-1.322-2.484-1.322
		c-0.3,0-1.134-0.507-1.854-1.127S120.77,351.5,120,351.2c-0.771-0.3-1.991-1.054-2.714-1.673c-0.726-0.62-1.56-1.127-1.855-1.127
		s-1.421-0.605-2.495-1.344c-1.075-0.74-2.354-1.475-2.847-1.631c-0.492-0.154-1.409-0.717-2.039-1.246
		c-0.631-0.529-1.96-1.313-2.954-1.738c-0.994-0.426-1.935-0.98-2.09-1.231c-0.154-0.25-1.244-0.896-2.421-1.435
		c-1.177-0.537-2.266-1.178-2.413-1.422c-0.151-0.244-1.228-0.863-2.386-1.377c-1.162-0.516-2.242-1.146-2.4-1.399
		c-0.159-0.257-1.3-0.913-2.537-1.458c-1.237-0.546-2.388-1.238-2.559-1.538c-0.17-0.3-1.388-1.028-2.7-1.618
		c-1.314-0.59-2.39-1.206-2.39-1.369c0-0.162-0.585-0.527-1.303-0.809c-0.715-0.282-1.86-0.928-2.552-1.434
		c-0.688-0.506-2.264-1.367-3.5-1.914s-2.248-1.19-2.248-1.435c0-0.239-1.17-0.963-2.6-1.604c-1.433-0.644-2.603-1.33-2.603-1.528
		c0-0.199-0.814-0.675-1.813-1.058c-0.998-0.381-2.306-1.102-2.9-1.6c-0.596-0.499-1.534-1.041-2.084-1.206
		c-0.55-0.163-1.45-0.72-2-1.231c-0.55-0.514-2.018-1.385-3.263-1.936c-1.245-0.55-2.383-1.193-2.529-1.431
		c-0.146-0.237-1.347-1.013-2.669-1.722c-4.473-2.403-5.335-2.897-7.317-4.195c-1.088-0.712-2.203-1.295-2.481-1.295
		s-0.918-0.434-1.422-0.961c-0.504-0.528-1.861-1.36-3.019-1.851c-1.152-0.489-2.1-1.028-2.1-1.2c0-0.175-1.072-0.81-2.383-1.414
		c-3.512-1.619-3.218,7.469-3.218-99.854c0-108.175-0.328-97.964,3.199-99.482c1.121-0.483,2.13-1.113,2.24-1.401
		c0.11-0.287,0.913-0.758,1.784-1.045c0.871-0.288,2.257-1.095,3.08-1.794c0.821-0.7,1.96-1.386,2.528-1.526
		c0.566-0.14,1.724-0.802,2.564-1.472c0.842-0.67,1.998-1.327,2.566-1.461c0.566-0.133,1.481-0.636,2.032-1.117
		c0.552-0.482,1.768-1.206,2.701-1.611c0.938-0.404,1.925-1.001,2.195-1.327c0.271-0.327,1.286-0.934,2.258-1.35
		c0.972-0.417,2.375-1.292,3.119-1.946c0.745-0.653,1.694-1.188,2.109-1.188c0.416,0,1.295-0.454,1.953-1.008
		c0.656-0.554,2.016-1.37,3.015-1.811c0.999-0.442,1.933-0.994,2.076-1.225c0.144-0.232,1.022-0.75,1.958-1.15
		c0.934-0.4,2.333-1.285,3.106-1.967c0.776-0.681,1.68-1.239,2.003-1.239c0.325,0,1.291-0.484,2.147-1.075
		c1.544-1.067,3.335-2.091,7.956-4.548c1.319-0.702,2.536-1.511,2.703-1.797s0.919-0.723,1.671-0.971
		c0.752-0.249,2.146-1.07,3.097-1.826c0.951-0.757,2.03-1.377,2.398-1.379c0.367-0.002,1.178-0.423,1.8-0.935
		c0.622-0.512,1.984-1.337,3.028-1.834c1.045-0.498,2.011-1.086,2.146-1.307c0.138-0.222,1.371-0.907,2.743-1.522
		c1.371-0.616,2.597-1.391,2.725-1.722c0.128-0.332,0.92-0.824,1.761-1.093s1.891-0.819,2.333-1.221
		c0.441-0.402,1.648-1.105,2.684-1.562s1.989-1.01,2.125-1.228c0.135-0.219,1.299-0.93,2.587-1.58
		c1.288-0.65,2.461-1.376,2.608-1.612c0.146-0.237,1.191-0.851,2.328-1.365c1.136-0.514,2.684-1.404,3.439-1.978
		c0.757-0.575,1.577-1.045,1.822-1.045s1.063-0.461,1.821-1.025c0.759-0.564,2.231-1.396,3.276-1.849
		c1.045-0.454,1.9-0.992,1.9-1.197s1.028-0.829,2.289-1.385c1.259-0.557,2.7-1.425,3.204-1.929c0.506-0.505,1.409-1.017,2.013-1.139
		c0.603-0.121,1.505-0.606,2.007-1.076c0.502-0.471,1.896-1.291,3.102-1.823c1.202-0.532,2.188-1.128,2.188-1.325
		c0-0.198,0.996-0.763,2.214-1.258c1.217-0.494,2.434-1.198,2.7-1.564c0.267-0.367,1.206-1,2.086-1.407
		c0.88-0.407,2.353-1.254,3.271-1.882c0.92-0.627,1.894-1.141,2.161-1.141c0.271,0,1.139-0.495,1.93-1.099
		c0.791-0.605,2.293-1.497,3.338-1.982c1.045-0.485,1.898-1.05,1.898-1.254c0-0.205,0.978-0.768,2.168-1.252
		c1.192-0.484,2.467-1.209,2.828-1.61c0.364-0.401,1.233-0.955,1.935-1.23c0.697-0.276,1.848-0.925,2.553-1.443
		c0.705-0.519,2.101-1.293,3.101-1.722s1.817-0.945,1.817-1.147c0-0.203,0.982-0.767,2.185-1.255
		c1.201-0.487,2.405-1.153,2.678-1.479c0.271-0.326,1.491-1.126,2.716-1.779c1.223-0.653,2.942-1.636,3.824-2.184
		C199.222,2.379,201.544,2.601,204.434,4.473 M197.029,27.211c-0.861,0.654-1.882,1.189-2.262,1.189s-1.458,0.64-2.395,1.423
		c-0.938,0.783-2.223,1.527-2.854,1.653s-1.367,0.522-1.634,0.879s-1.438,1.087-2.599,1.622c-1.162,0.534-2.329,1.233-2.597,1.552
		c-0.265,0.319-1.273,0.921-2.248,1.337c-0.971,0.417-2.375,1.292-3.116,1.946C176.58,39.465,175.617,40,175.184,40
		c-0.432,0-1.12,0.334-1.525,0.742c-0.409,0.409-1.765,1.242-3.011,1.851c-1.246,0.61-2.356,1.261-2.474,1.446
		c-0.115,0.186-0.967,0.679-1.895,1.096c-0.926,0.417-2.384,1.322-3.236,2.011c-0.855,0.69-1.865,1.254-2.244,1.254
		c-0.378,0-1.479,0.626-2.445,1.39c-0.966,0.765-2.236,1.496-2.828,1.626c-0.59,0.129-1.299,0.508-1.572,0.841
		c-0.277,0.333-1.414,1.066-2.528,1.628c-1.114,0.563-2.534,1.448-3.156,1.969c-0.622,0.52-1.46,0.946-1.86,0.946
		c-0.401,0-1.486,0.631-2.409,1.403c-0.926,0.771-2.156,1.515-2.738,1.652c-0.582,0.138-1.419,0.573-1.859,0.968
		c-0.438,0.394-1.735,1.187-2.885,1.76c-1.146,0.574-2.188,1.213-2.313,1.419c-0.13,0.206-1.057,0.739-2.062,1.183
		c-1.005,0.445-2.443,1.35-3.197,2.012c-0.754,0.662-1.654,1.203-2.006,1.203c-0.35,0-1.714,0.72-3.031,1.6
		c-1.316,0.88-2.624,1.6-2.9,1.6c-0.278,0-0.736,0.279-1.021,0.62c-0.28,0.34-1.511,1.105-2.728,1.7
		c-1.218,0.594-2.62,1.485-3.117,1.98c-0.496,0.495-1.229,0.9-1.632,0.9s-1.688,0.72-2.858,1.6c-1.171,0.88-2.446,1.6-2.84,1.6
		c-0.391,0-0.946,0.285-1.235,0.633c-0.287,0.348-1.614,1.18-2.947,1.849c-1.333,0.67-2.56,1.445-2.721,1.723
		c-0.16,0.278-0.779,0.628-1.375,0.777c-1.027,0.258-3.286,1.636-3.742,2.283c-0.118,0.167-0.853,0.57-1.627,0.894
		c-0.777,0.325-2.389,1.232-3.577,2.016c-1.19,0.784-2.371,1.425-2.624,1.425s-0.7,0.289-0.993,0.642
		c-0.293,0.353-1.511,1.075-2.706,1.603c-1.195,0.529-2.589,1.41-3.097,1.958c-0.51,0.548-1.228,0.997-1.595,0.997
		c-0.365,0-1.746,0.72-3.063,1.6c-1.318,0.88-2.624,1.6-2.902,1.6c-0.275,0-0.74,0.285-1.028,0.633
		c-0.288,0.348-1.615,1.181-2.948,1.851c-1.333,0.671-2.521,1.369-2.64,1.552c-0.116,0.183-0.916,0.626-1.773,0.985
		c-0.858,0.359-2.185,1.131-2.943,1.716c-1.419,1.09-2.536,1.732-6.824,3.92c-1.521,0.777-2.991,1.923-3.851,3L49.21,115.4
		l0.009,84.6l0.01,84.6l1.091,1.578c0.651,0.942,2,2.07,3.349,2.801c1.239,0.672,2.604,1.537,3.025,1.922
		c0.427,0.387,1.057,0.699,1.399,0.699c0.346,0,1.587,0.723,2.758,1.603s2.438,1.6,2.813,1.6s1.208,0.445,1.854,0.988
		c0.646,0.544,2.076,1.438,3.177,1.994c1.104,0.553,2.229,1.276,2.506,1.61c0.276,0.332,0.769,0.605,1.092,0.605
		c0.32,0,1.611,0.721,2.867,1.6c1.256,0.881,2.563,1.603,2.907,1.603c0.349,0,1.328,0.563,2.186,1.254
		c0.854,0.688,2.296,1.587,3.201,1.995c0.904,0.406,1.872,1.014,2.147,1.346c0.276,0.333,0.709,0.604,0.962,0.604
		c0.252,0,1.535,0.717,2.854,1.591c1.313,0.872,2.644,1.593,2.953,1.6c0.311,0.009,1.479,0.707,2.601,1.562
		c1.12,0.851,2.501,1.656,3.067,1.789c0.565,0.133,1.474,0.65,2.014,1.15c0.54,0.501,1.786,1.268,2.769,1.701
		c0.983,0.438,2.022,1.107,2.313,1.5c0.287,0.393,0.806,0.709,1.149,0.709c0.729,0,3.163,1.438,4.211,2.482
		c0.395,0.396,1.052,0.718,1.46,0.718c0.409,0,1.434,0.546,2.271,1.213s2.394,1.608,3.455,2.099c1.061,0.485,1.929,1,1.929,1.141
		s1.035,0.754,2.3,1.363c1.268,0.608,2.622,1.439,3.019,1.848c0.393,0.406,1.054,0.738,1.469,0.738s1.585,0.635,2.603,1.41
		c1.016,0.773,2.56,1.693,3.431,2.043s1.584,0.803,1.584,1.008s1.095,0.892,2.432,1.521c1.338,0.635,2.733,1.414,3.103,1.736
		c0.367,0.32,1.075,0.709,1.574,0.859c0.499,0.152,1.681,0.865,2.62,1.584c0.941,0.721,2.188,1.426,2.767,1.571
		c0.577,0.146,1.293,0.507,1.588,0.802c0.905,0.905,3.869,2.662,4.49,2.662c0.322,0,0.73,0.241,0.907,0.538
		c0.177,0.296,1.266,1.009,2.418,1.582c1.153,0.574,2.482,1.403,2.953,1.843c0.473,0.438,1.372,0.909,2.002,1.049
		c0.633,0.14,1.866,0.854,2.746,1.59c0.881,0.732,2.141,1.453,2.8,1.6s1.427,0.563,1.7,0.934c0.275,0.367,1.535,1.178,2.801,1.799
		c1.267,0.621,2.302,1.283,2.302,1.469c0,0.188,0.675,0.553,1.5,0.814c0.823,0.26,2.146,0.979,2.937,1.598s2.112,1.408,2.938,1.752
		c0.823,0.344,1.999,1.047,2.608,1.561c0.611,0.514,1.722,1.18,2.465,1.479s1.861,0.961,2.483,1.471
		c0.622,0.511,1.373,0.927,1.669,0.927s1.333,0.606,2.305,1.348c0.973,0.742,2.397,1.559,3.173,1.813
		c0.772,0.257,1.822,0.909,2.335,1.453c1.3,1.384,3.249,1.322,5.132-0.157c0.802-0.632,1.907-1.281,2.458-1.447
		c0.55-0.164,1.588-0.739,2.307-1.278c0.718-0.537,2.09-1.324,3.047-1.748s1.967-1.043,2.242-1.375s0.683-0.604,0.903-0.604
		c0.22,0,1.456-0.705,2.748-1.565c1.293-0.863,2.979-1.777,3.75-2.031c0.771-0.256,1.4-0.621,1.4-0.813
		c0-0.473,3.303-2.387,4.112-2.387c0.354,0,0.878-0.313,1.165-0.699c0.288-0.387,1.558-1.192,2.823-1.797
		c1.265-0.603,2.3-1.257,2.3-1.453s0.981-0.756,2.184-1.244c1.202-0.487,2.417-1.168,2.7-1.512c0.284-0.345,1.266-0.957,2.181-1.363
		c0.915-0.403,2.6-1.364,3.739-2.135c1.144-0.769,2.308-1.396,2.587-1.396c0.281,0,0.744-0.28,1.028-0.623
		c0.285-0.344,1.162-0.893,1.949-1.219s2.062-1.098,2.832-1.707c0.77-0.612,1.96-1.309,2.643-1.543
		c0.686-0.234,2.094-1.076,3.131-1.867c1.038-0.793,2.211-1.439,2.608-1.439c0.396,0,0.956-0.285,1.244-0.633
		c0.287-0.348,1.435-1.092,2.549-1.652c1.113-0.563,2.534-1.447,3.155-1.971c0.622-0.52,1.461-0.945,1.86-0.945
		c0.402,0,1.487-0.631,2.41-1.402c0.924-0.771,2.156-1.516,2.738-1.651c0.582-0.138,1.419-0.567,1.857-0.952
		c0.439-0.389,1.731-1.17,2.871-1.74c1.142-0.568,2.185-1.215,2.316-1.434c0.135-0.219,1.055-0.755,2.046-1.193
		c0.99-0.438,2.464-1.342,3.274-2.01c0.81-0.668,1.726-1.216,2.03-1.216c0.31,0,1.639-0.72,2.954-1.601
		c1.318-0.879,2.624-1.6,2.902-1.6s0.726-0.268,0.995-0.593c0.269-0.323,1.486-1.078,2.706-1.675c1.218-0.598,2.631-1.5,3.14-2.008
		c0.509-0.512,1.28-0.928,1.713-0.928c0.434,0,1.366-0.496,2.073-1.101s2.146-1.55,3.198-2.101c5.435-2.84,7.003-3.742,7.258-4.18
		c0.153-0.265,0.976-0.709,1.824-0.988c0.85-0.281,2.146-1.035,2.884-1.681c0.734-0.644,1.806-1.284,2.376-1.427
		c0.567-0.145,1.666-0.76,2.436-1.374c0.771-0.612,2.063-1.392,2.873-1.729c0.812-0.336,1.578-0.781,1.707-0.99
		c0.13-0.209,1.248-0.846,2.486-1.411c1.237-0.565,2.666-1.479,3.173-2.024c0.508-0.549,1.259-0.996,1.67-0.996
		c0.41,0,1.712-0.721,2.891-1.601c1.182-0.88,2.444-1.603,2.813-1.603s0.977-0.342,1.355-0.762c0.38-0.421,1.632-1.18,2.78-1.688
		c1.399-0.616,2.58-1.543,3.571-2.799l1.479-1.877v-84.356c0-79.722-0.036-84.406-0.697-85.273
		c-1.919-2.513-2.615-3.245-3.092-3.245c-0.283,0-1.598-0.72-2.914-1.6c-1.317-0.88-2.684-1.6-3.031-1.6
		c-0.351,0-1.251-0.541-2.003-1.201c-0.754-0.661-2.064-1.488-2.914-1.839c-0.853-0.35-1.908-0.971-2.354-1.379
		c-0.44-0.408-1.624-1.104-2.625-1.547s-2.148-1.171-2.557-1.619c-0.405-0.448-1.042-0.815-1.415-0.815s-1.451-0.56-2.396-1.245
		c-0.945-0.684-2.353-1.509-3.123-1.831c-0.772-0.323-2.053-1.087-2.844-1.697c-0.79-0.611-2.064-1.351-2.837-1.645
		c-0.77-0.294-1.541-0.765-1.712-1.045c-0.172-0.281-1.114-0.865-2.094-1.298c-0.979-0.434-2.387-1.25-3.125-1.814
		c-0.74-0.564-1.604-1.025-1.918-1.025c-0.315,0-1.512-0.705-2.659-1.568c-1.146-0.862-2.639-1.689-3.316-1.837
		c-0.677-0.149-1.325-0.523-1.443-0.833c-0.118-0.309-1.366-1.111-2.772-1.782c-1.404-0.672-2.558-1.367-2.558-1.546
		c0-0.179-0.765-0.619-1.7-0.977c-0.935-0.359-2.236-1.116-2.896-1.684c-0.658-0.567-1.674-1.127-2.257-1.243
		c-0.583-0.117-1.583-0.69-2.223-1.273c-0.639-0.584-1.964-1.416-2.941-1.85c-0.981-0.434-2.021-1.108-2.309-1.498
		c-0.287-0.39-0.759-0.709-1.049-0.709c-0.701,0-4.021-1.871-4.639-2.613C274.521,68.664,274,68.4,273.63,68.4
		s-1.46-0.585-2.422-1.3c-0.962-0.715-2.424-1.66-3.247-2.1c-0.824-0.44-2.615-1.399-3.98-2.131c-1.361-0.732-2.852-1.677-3.306-2.1
		S259.556,60,259.197,60c-0.356,0-1.615-0.72-2.797-1.6c-1.179-0.88-2.479-1.6-2.891-1.6s-1.146-0.411-1.628-0.913
		c-0.485-0.503-1.781-1.358-2.881-1.9c-1.103-0.543-2.063-1.132-2.144-1.31c-0.078-0.178-1.065-0.739-2.197-1.247
		c-1.135-0.508-2.497-1.313-3.033-1.788c-0.535-0.475-1.438-0.973-2-1.105c-0.564-0.133-1.926-0.924-3.026-1.758
		c-1.1-0.835-2.499-1.641-3.106-1.794c-0.61-0.152-1.33-0.572-1.603-0.933c-0.27-0.361-1.436-1.091-2.591-1.623
		c-1.155-0.531-2.398-1.295-2.762-1.697c-0.364-0.403-0.979-0.732-1.36-0.732s-1.656-0.72-2.827-1.6
		c-1.171-0.88-2.354-1.6-2.631-1.6c-0.275,0-1.709-0.81-3.185-1.8c-1.479-0.99-2.898-1.8-3.16-1.8c-0.266,0-0.71-0.28-0.994-0.623
		c-0.285-0.343-1.162-0.891-1.949-1.218c-0.788-0.327-2.068-1.104-2.845-1.726c-0.778-0.622-1.97-1.254-2.65-1.403
		c-0.68-0.149-1.648-0.712-2.156-1.251C201.442,25.554,199.093,25.649,197.029,27.211 M209.374,115.222
		c1.668,0.232,3.614,0.661,4.329,0.954c0.713,0.294,2.646,0.742,4.297,0.998c4.557,0.705,6.827,1.271,8.175,2.04
		c0.674,0.383,1.933,0.822,2.799,0.974c1.416,0.248,6.492,2.418,9.626,4.116c0.66,0.357,2.186,1.161,3.384,1.786
		c1.201,0.626,2.461,1.38,2.803,1.676c0.339,0.295,1.243,0.854,2.016,1.242c0.77,0.387,1.986,1.174,2.703,1.748
		c6.215,4.98,8.011,6.545,10.792,9.401c2.711,2.785,4.479,4.76,6.219,6.942c0.833,1.046,2.214,2.751,3.07,3.79
		c0.854,1.039,1.68,2.299,1.832,2.8c0.149,0.501,0.604,1.273,1.01,1.715c0.403,0.442,1.19,1.837,1.749,3.1
		c0.558,1.263,1.183,2.296,1.388,2.296s0.688,0.945,1.066,2.1c0.381,1.155,1.296,3.24,2.032,4.633
		c0.733,1.393,1.339,2.996,1.339,3.562c0,0.565,0.474,2.03,1.054,3.256c0.587,1.241,1.302,3.827,1.613,5.839
		c0.308,1.985,0.959,4.87,1.443,6.41c1.234,3.896,1.345,23.734,0.146,26.4c-0.396,0.88-1.041,3.672-1.433,6.205
		c-0.456,2.938-1.077,5.327-1.719,6.6c-0.551,1.098-1.123,2.827-1.271,3.844c-0.148,1.018-0.793,2.674-1.435,3.684
		c-0.64,1.009-1.353,2.538-1.585,3.398c-0.229,0.86-0.785,2.029-1.23,2.599c-0.446,0.567-1.261,2.013-1.813,3.214
		c-0.55,1.2-1.247,2.275-1.55,2.396c-0.303,0.113-0.668,0.744-0.811,1.396c-0.146,0.653-0.635,1.521-1.09,1.929
		c-0.456,0.406-1.241,1.37-1.745,2.142c-0.503,0.771-1.563,2.106-2.351,2.974c-0.787,0.865-1.432,1.714-1.432,1.889
		c0,0.409-9.129,9.539-9.54,9.539c-0.173,0-1.022,0.646-1.887,1.434c-0.865,0.787-2.203,1.845-2.976,2.348
		c-0.77,0.504-1.731,1.289-2.141,1.745c-0.408,0.457-1.275,0.946-1.928,1.09c-0.653,0.144-1.28,0.509-1.396,0.812
		c-0.116,0.305-1.192,1-2.394,1.551c-1.202,0.55-2.647,1.363-3.214,1.811c-0.567,0.446-1.773,1.008-2.682,1.243
		c-0.904,0.237-2.275,0.856-3.048,1.381c-0.77,0.522-2.3,1.161-3.399,1.423c-1.101,0.26-3.171,0.973-4.601,1.584
		c-1.543,0.658-4.063,1.299-6.2,1.57c-1.979,0.253-4.68,0.854-6,1.337c-3.672,1.341-22.558,1.333-26.8-0.011
		c-1.54-0.486-4.425-1.141-6.41-1.446c-2.012-0.313-4.598-1.024-5.839-1.612c-1.226-0.578-2.612-1.055-3.082-1.055
		c-1.051,0-3.923-1.107-5.269-2.035c-0.552-0.379-1.945-0.988-3.103-1.357c-1.153-0.369-2.1-0.838-2.1-1.043
		s-1.033-0.83-2.296-1.389c-1.265-0.56-2.658-1.347-3.103-1.748c-0.439-0.404-1.214-0.857-1.715-1.012s-1.761-0.977-2.8-1.832
		c-1.039-0.854-2.744-2.234-3.79-3.068c-2.183-1.738-4.157-3.508-6.941-6.221c-2.856-2.781-4.336-4.479-9.401-10.791
		c-0.575-0.718-1.416-2.035-1.87-2.931s-1.109-1.862-1.455-2.147c-0.346-0.287-0.629-0.736-0.629-0.998
		c0-0.264-0.695-1.637-1.544-3.053c-0.851-1.416-1.774-3.295-2.057-4.175c-0.281-0.88-0.824-2.05-1.209-2.603
		c-0.781-1.12-1.989-4.465-1.991-5.514c-0.001-0.377-0.333-1.229-0.738-1.895c-0.801-1.313-1.366-3.53-2.087-8.191
		c-0.256-1.65-0.704-3.584-0.998-4.297c-1.755-4.271-1.852-24.686-0.123-26.766c0.223-0.27,0.738-2.525,1.143-5.013
		c0.943-5.779,1.19-6.784,1.856-7.554c0.3-0.346,0.9-2.022,1.336-3.724c0.435-1.701,1.146-3.546,1.582-4.098
		c0.434-0.553,1.066-1.958,1.406-3.124c0.339-1.166,0.877-2.336,1.193-2.601c0.319-0.264,1.137-1.593,1.813-2.952
		c1.537-3.087,2.705-4.969,4.117-6.634c0.604-0.714,1.1-1.428,1.1-1.587c0-0.159,0.72-1.038,1.601-1.954
		c0.882-0.916,1.602-1.835,1.602-2.043c0-0.493,10.359-10.853,10.853-10.853c0.208,0,1.127-0.72,2.043-1.6s1.792-1.6,1.947-1.6
		s1.037-0.631,1.96-1.403c0.924-0.771,2.111-1.511,2.639-1.643c0.526-0.132,0.96-0.409,0.96-0.614c0-0.206,1.054-0.872,2.341-1.48
		c1.285-0.609,2.823-1.489,3.418-1.956c0.594-0.467,1.653-0.97,2.358-1.119c0.704-0.148,2.184-0.777,3.281-1.398
		c1.102-0.62,2.9-1.336,4-1.59c1.102-0.254,2.9-0.892,4-1.417c1.185-0.566,3.797-1.226,6.4-1.617c2.42-0.363,4.959-0.917,5.642-1.23
		C189.326,114.903,203.11,114.351,209.374,115.222 M194,135.262c-3.188,0.865-4.771,1.162-8.041,1.504
		c-2.36,0.247-4.086,0.687-5.493,1.401c-1.129,0.572-3.025,1.293-4.214,1.603c-1.188,0.309-2.856,1-3.706,1.535
		c-0.854,0.535-2.207,1.189-3.014,1.454c-0.81,0.265-1.678,0.731-1.93,1.035c-0.253,0.305-1.211,0.946-2.13,1.425
		c-0.919,0.479-2.263,1.39-2.987,2.026c-0.724,0.635-1.478,1.155-1.677,1.155c-0.87,0-12.411,11.519-12.411,12.387
		c0,0.186-0.651,1.119-1.453,2.075c-0.799,0.956-1.646,2.188-1.885,2.738c-0.234,0.55-0.843,1.509-1.346,2.131
		c-0.504,0.622-0.916,1.314-0.916,1.539c0,0.591-1.241,3.22-1.873,3.968c-0.296,0.351-0.804,1.659-1.129,2.906
		c-0.325,1.248-1.062,3.193-1.631,4.322c-0.714,1.407-1.154,3.133-1.401,5.493c-0.344,3.292-0.603,4.686-1.53,8.241
		c-0.712,2.731-0.518,9.634,0.371,13.2c0.438,1.76,0.978,4.865,1.192,6.899c0.271,2.563,0.699,4.287,1.382,5.603
		c0.543,1.043,1.245,2.896,1.563,4.117c0.313,1.22,1.028,2.894,1.591,3.719c0.561,0.826,1.233,2.167,1.501,2.979
		c0.266,0.814,0.907,1.989,1.425,2.611s0.942,1.274,0.942,1.456c0,0.179,0.72,1.195,1.6,2.262s1.6,2.096,1.6,2.285
		c0,0.588,5.6,6.751,7.969,8.771c1.229,1.051,2.594,2.244,3.031,2.655c0.44,0.412,1.376,1.039,2.08,1.396
		c0.704,0.354,1.426,0.891,1.603,1.188c0.176,0.302,0.949,0.861,1.72,1.247c0.771,0.387,1.76,1.026,2.2,1.426
		c0.438,0.397,1.816,1.104,3.063,1.567s2.478,1.101,2.733,1.41c0.259,0.313,1.49,0.858,2.737,1.215
		c1.245,0.356,3.251,1.108,4.456,1.673c1.262,0.591,3.429,1.163,5.112,1.354c1.609,0.182,4.834,0.72,7.167,1.196
		c4.934,1.011,12.538,0.929,16.729-0.181c1.317-0.35,3.935-0.807,5.811-1.018c2.252-0.25,4.104-0.729,5.449-1.402
		c1.12-0.563,2.959-1.235,4.086-1.496c1.127-0.26,2.371-0.771,2.763-1.139c0.396-0.365,1.575-0.993,2.63-1.396
		c1.054-0.401,2.559-1.241,3.345-1.866s1.663-1.137,1.949-1.137c0.284,0,1.335-0.675,2.327-1.5c0.994-0.825,2.547-2.04,3.445-2.7
		c2.113-1.549,8.246-7.682,9.795-9.795c0.66-0.897,1.875-2.45,2.7-3.444s1.5-2.043,1.5-2.328c0-0.286,0.511-1.164,1.136-1.949
		c0.625-0.786,1.459-2.296,1.854-3.354c0.395-1.062,1.026-2.287,1.408-2.729c0.382-0.438,0.908-1.7,1.178-2.801
		c0.267-1.102,0.934-2.896,1.48-3.988c0.649-1.293,1.133-3.184,1.379-5.398c0.212-1.875,0.667-4.49,1.019-5.813
		c1.105-4.188,1.188-11.797,0.18-16.728c-0.478-2.333-1.016-5.558-1.197-7.167c-0.188-1.705-0.758-3.839-1.357-5.115
		c-0.568-1.205-1.262-3.09-1.54-4.19c-0.28-1.1-0.903-2.489-1.386-3.088c-0.483-0.598-1.177-1.979-1.536-3.069
		c-0.362-1.09-0.934-2.208-1.268-2.485c-0.334-0.278-0.978-1.237-1.43-2.131c-0.453-0.895-1.07-1.771-1.371-1.947
		c-0.301-0.176-0.838-0.896-1.19-1.6c-0.354-0.704-0.981-1.64-1.396-2.08s-1.605-1.805-2.656-3.034
		c-2.021-2.369-8.184-7.966-8.771-7.966c-0.192,0-1.221-0.72-2.285-1.6c-1.065-0.88-2.083-1.6-2.262-1.6
		c-0.182,0-0.834-0.424-1.456-0.942s-1.797-1.159-2.611-1.425c-0.813-0.265-2.156-0.94-2.98-1.501
		c-0.824-0.56-2.499-1.276-3.721-1.591c-1.221-0.315-3.071-1.017-4.115-1.56c-1.313-0.683-3.038-1.108-5.602-1.382
		c-2.036-0.217-5.142-0.754-6.902-1.192C203.926,134.741,196.611,134.553,194,135.262"/>
</g>
</svg>
